<svg width="327" height="81" viewBox="0 0 327 81" fill="none" xmlns="http://www.w3.org/2000/svg">
<path fill-rule="evenodd" clip-rule="evenodd" d="M58.25 0.145447L43 0.466446V4.44045V8.41445H58.5H74V22.4144V36.4145H78H82V18.4144C82 0.418449 81.999 0.414448 79.75 0.400448C78.513 0.393448 76.6 0.26045 75.5 0.10545C74.4 -0.04955 66.638 -0.0315529 58.25 0.145447ZM205 5.41445C202.593 7.82145 202.499 9.25445 204.557 12.1915C206.764 15.3445 212.398 15.2635 214.504 12.0495C218.421 6.06945 210.132 0.282448 205 5.41445ZM271 5.41445C267.138 9.27645 269.78 14.4144 275.629 14.4144C279.302 14.4144 281 12.8194 281 9.36945C281 4.03045 274.826 1.58845 271 5.41445ZM132.324 8.05245C121.959 11.7254 114.663 22.2015 114.663 33.4145C114.663 61.4985 153.862 70.9444 167.589 46.1684C170.078 41.6764 170.5 39.8275 170.5 33.4145C170.5 27.0015 170.078 25.1525 167.589 20.6605C160.957 8.69045 145.808 3.27445 132.324 8.05245ZM32 23.1434V35.8725L23.022 26.9355L14.043 17.9994L11 20.9144L7.956 23.8305L16.707 32.6225L25.458 41.4145H12.729H0V45.9144V50.4144H12.229H24.458L15.499 59.4154L6.54 68.4164L9.77 71.6454L12.999 74.8754L22.5 65.4144L32 55.9544V68.1844V80.4144H36H40V68.1854V55.9564L48.792 64.7074L57.584 73.4585L60.499 70.4155L63.414 67.3724L54.979 58.8934L46.544 50.4144H59.272H72V45.9144V41.4145H55.5H39V25.9144V10.4144H35.5H32V23.1434ZM135.5 16.8314C129.158 19.6624 125 26.2285 125 33.4145C125 46.9315 138.158 55.1574 150.684 49.4714C163.805 43.5144 163.805 23.3145 150.684 17.3575C145.807 15.1435 139.752 14.9344 135.5 16.8314ZM231.5 20.8314C225.069 23.7024 220 31.8294 220 39.2684C220 45.4454 224.627 53.2914 229.921 56.0914C236.033 59.3234 243.469 59.2634 248.36 55.9444L252 53.4744V56.3884C252 58.0274 250.944 60.5304 249.587 62.1084C247.426 64.6204 246.525 64.9144 240.992 64.9144C235.447 64.9144 234.585 64.6314 232.618 62.1644C230.849 59.9464 229.61 59.4144 226.212 59.4144C221.28 59.4144 220.794 60.9244 224.024 66.2224C226.781 70.7434 232.907 73.3654 240.782 73.3924C250.806 73.4274 256.778 70.1914 260.119 62.9144C261.697 59.4794 261.959 56.1955 261.978 39.6645L262 20.4144H257C252.692 20.4144 252 20.6875 252 22.3845C252 24.2525 251.812 24.2265 248.36 21.8845C244.185 19.0505 236.557 18.5744 231.5 20.8314ZM305 20.1364C304.175 20.4464 302.262 21.5664 300.75 22.6254C298.016 24.5394 298 24.5385 298 22.4825C298 20.6675 297.388 20.4144 293 20.4144H288V39.9145V59.4144H293H298L298.024 50.1644C298.054 38.5004 299.199 33.5154 302.503 30.6644C305.736 27.8764 310.925 27.7244 314.139 30.3234C316.377 32.1334 316.517 32.9414 316.827 45.8234L317.155 59.4144H322.077H327L326.978 45.6644C326.953 29.8124 325.502 24.9105 319.808 21.4385C316.588 19.4755 308.622 18.7744 305 20.1364ZM176 39.9145V59.4144H181H186L186.006 49.6644C186.015 33.7864 188.094 29.6094 196.459 28.6664C200.977 28.1574 201 28.1345 201 24.2845V20.4144L196.75 20.4184C194.279 20.4204 191.139 21.2514 189.25 22.4034C186.009 24.3794 186 24.3795 186 22.3995C186 20.6845 185.321 20.4144 181 20.4144H176V39.9145ZM204 39.9145V59.4144H209H214V39.9145V20.4144H209H204V39.9145ZM270 39.9145V59.4144H275H280V39.9145V20.4144H275H270V39.9145ZM234.111 30.9744C225.062 38.5884 232.891 52.8604 244.25 49.4574C248.782 48.1004 251.991 43.5875 251.996 38.5645C251.999 36.0855 251.116 34.3305 248.6 31.8145C244.205 27.4195 238.714 27.1014 234.111 30.9744Z" fill="white"/>
</svg>
