<svg width="105" height="103" viewBox="0 0 105 103" fill="none" xmlns="http://www.w3.org/2000/svg">
<path fill-rule="evenodd" clip-rule="evenodd" d="M55.8918 5.31256V10.6251H75.1738H94.4558V28.6288V46.6325H99.7279H105V23.3163V0H80.4459H55.8918V5.31256ZM41.1447 29.5204V45.538L29.734 34.1693L18.3234 22.8006L14.6549 26.4708L10.9864 30.1411L22.2128 41.3751L33.4391 52.6091H16.7196H0V58.18V63.7508H16.3777H32.7554L21.189 75.2928L9.62254 86.8348L13.5356 90.7558L17.4486 94.6768L29.2966 82.8586L41.1447 71.0403V86.9487V102.857H46.3429H51.5411L51.5597 86.7747L51.5783 70.6921L62.9336 82.0047L74.289 93.3173L77.9573 89.7032C79.9749 87.7154 81.6257 86.0551 81.6257 86.0136C81.6257 85.9721 76.6236 80.9477 70.51 74.8483L59.3943 63.7584L75.8927 63.7545L92.3912 63.7508V58.2146C92.3912 53.1619 92.3806 52.6743 92.2708 52.6321C92.2046 52.6066 92.0889 52.6243 92.0137 52.6713C91.911 52.7355 86.7609 52.7567 71.3037 52.7567H50.7303V33.1297V13.5028H45.9375H41.1447V29.5204Z" fill="currentColor"/>
</svg>
