<svg width="469" height="104" viewBox="0 0 469 104" fill="none" xmlns="http://www.w3.org/2000/svg">
<path fill-rule="evenodd" clip-rule="evenodd" d="M45.667 0.666992C45.3 1.03299 45 8.23299 45 16.667V32H48.5H52V16V0H49.167C47.608 0 46.033 0.299992 45.667 0.666992ZM19.452 22.433C17.088 26.041 19.018 29.225 23.316 28.808C25.972 28.551 26.553 28.034 26.822 25.69C27.453 20.187 22.389 17.95 19.452 22.433ZM69.75 21.08C66.182 23.158 67.936 29 72.128 29C76.186 29 78.15 24.928 75.504 22.004C73.482 19.77 72.32 19.583 69.75 21.08ZM129 26.461V30.922L137.75 31.211L146.5 31.5L146.767 56.75L147.034 82H152.517H158V56.5V31H167H176V26.5V22H152.5H129V26.461ZM445 29.5V36H440C435.05 36 435 36.032 435 39.174V42.349L432.736 40.222C425.46 33.387 410.971 33.245 404.551 39.947C402.444 42.146 401.613 44.138 401.315 47.703C400.609 56.181 405.112 60.794 416.186 62.936C423.966 64.44 427 66.272 427 69.466C427 76.221 412.041 76.996 410.368 70.329C409.844 68.244 409.208 68 404.283 68C398.791 68 398.784 68.004 399.437 70.75C401.617 79.923 411.653 84.863 424.11 82.894C433.045 81.481 437.989 76.232 437.996 68.15C437.999 64.559 437.424 63.224 434.7 60.5C431.461 57.261 429.014 56.273 418 53.757C413.076 52.631 412.466 52.206 412.178 49.69C411.725 45.741 413.574 44 418.221 44C421.367 44 422.794 44.639 425.056 47.06C427.521 49.699 428.504 50.077 432.207 49.81C435.651 49.561 436.442 49.154 436.206 47.75C435.962 46.297 436.683 46 440.456 46H445V58.532C445 72.946 446.14 76.896 451.19 79.974C453.704 81.507 456.243 81.993 461.75 81.996L469 82V77.5V73H463.449C458.06 73 457.856 72.899 456.449 69.532C455.51 67.286 455 62.53 455 56.032V46H462H469V41V36H462H455V29.5V23H450H445V29.5ZM190.044 36.577C177.933 41.831 172.302 54.262 176.176 67.193C177.773 72.524 184.054 79.404 189.203 81.465C194.608 83.627 203.888 83.614 208.198 81.438C213.572 78.726 220 71.706 220 68.55C220 68.247 217.503 68 214.452 68C209.64 68 208.59 68.365 206.539 70.75C204.476 73.148 203.448 73.5 198.51 73.5C193.247 73.5 192.604 73.236 189.423 69.765C187.54 67.71 186 65.123 186 64.015C186 62.07 186.623 62 204 62C224.422 62 222.997 62.749 220.928 53.1C219.445 46.185 215.26 40.807 208.895 37.635C202.805 34.6 195.541 34.193 190.044 36.577ZM242.5 36.403C240.85 37.131 238.6 38.738 237.5 39.974L235.5 42.221L234.99 39.36C234.509 36.663 234.195 36.5 229.49 36.5H224.5L224.231 59.25L223.962 82H229.481H235V68.968C235 54.581 235.971 50.741 240.514 47.168C243.501 44.818 247.943 44.364 251.15 46.08C254.919 48.098 256 52.974 256 67.968V82H261H266L266.006 70.25C266.009 63.788 266.501 56.735 267.1 54.579C269.536 45.804 277.714 42.272 283.694 47.411L286.5 49.822L286.819 65.911L287.138 82H292.569H298V68.049C298 51.792 296.828 45.138 293.208 40.835C286.471 32.829 273.936 33.174 267.254 41.549L264.663 44.796L262.562 41.648C258.581 35.686 249.502 33.312 242.5 36.403ZM323 36.594C321.075 37.428 318.262 39.295 316.75 40.742L314 43.374V39.687V36H309H304V67V98H309.5H315V86.896V75.793L318.518 78.882C320.453 80.581 323.266 82.24 324.768 82.569C326.271 82.898 327.985 83.311 328.579 83.486C330.839 84.156 339.269 81.945 342.074 79.947C346.456 76.827 350.191 71.432 351.605 66.179C352.298 63.606 352.905 62.4 352.954 63.5C353.099 66.722 356.482 73.271 359.594 76.351C368.54 85.205 383.501 85.592 392.339 77.197C394.876 74.788 398 70.015 398 68.55C398 68.247 395.545 68 392.545 68C388.085 68 386.643 68.448 384.632 70.459C379.617 75.474 371.988 75.028 367.076 69.434C365.384 67.507 364 65.046 364 63.965C364 62.086 364.77 62 381.5 62H399V57.114C399 50.088 394.751 42.359 388.899 38.741C376.078 30.814 360.273 36.147 354.585 50.32L352.249 56.14L351.612 52.747C349.232 40.059 334.37 31.669 323 36.594ZM203.282 45.362C206.685 46.802 209.289 49.352 210.317 52.25C210.886 53.856 209.913 54 198.469 54C191.514 54 186 53.592 186 53.077C186 51.076 191.339 45.964 194.333 45.097C198.804 43.803 199.658 43.828 203.282 45.362ZM380.685 45.067C384.466 46.499 388 49.933 388 52.174C388 53.84 386.951 54 376 54C369.331 54 364 53.59 364 53.077C364 51.076 369.339 45.964 372.333 45.097C376.664 43.843 377.449 43.84 380.685 45.067ZM337.024 48.523C347.602 58.657 338.678 76.923 325.057 73.016C313.526 69.709 311.357 53.806 321.5 46.927C325.834 43.988 333.066 44.731 337.024 48.523ZM0 53.5V57H16H32V53.5V50H16H0V53.5ZM65 53.5V57H81H97V53.5V50H81H65V53.5ZM45 88.5V104H48.5H52V88.5V73H48.5H45V88.5ZM21.385 77.438C21.055 78.3 21.073 80.156 21.426 81.563C21.968 83.721 22.557 84.073 25.183 83.811C31.526 83.178 31.492 76.818 25.142 76.186C22.988 75.972 21.795 76.369 21.385 77.438ZM68.385 77.438C68.055 78.3 68.073 80.156 68.426 81.563C68.968 83.721 69.557 84.073 72.183 83.811C78.526 83.178 78.492 76.818 72.142 76.186C69.988 75.972 68.795 76.369 68.385 77.438Z" fill="white"/>
</svg>
