<svg width="1024" height="1024" viewBox="0 0 1024 1024" fill="none" xmlns="http://www.w3.org/2000/svg">
<rect width="1024" height="1024" rx="150" fill="white"/>
<path fill-rule="evenodd" clip-rule="evenodd" d="M113.657 94.9446C117.98 100.165 125.369 108.944 130.078 114.454C134.786 119.964 144.989 132.065 152.751 141.345C160.513 150.625 173.761 166.285 182.19 176.145C190.619 186.005 201.064 198.343 205.4 203.563C209.736 208.783 232.54 235.832 256.077 263.672C279.612 291.513 306.809 323.852 316.517 335.537C326.22 347.223 334.747 357.012 335.465 357.289C337.147 357.941 418.411 416.107 561.955 519.405C594.732 542.991 634.127 571.243 649.499 582.184C664.873 593.127 699.94 618.134 727.426 637.755C754.914 657.379 777.576 673.262 777.785 673.054C777.994 672.843 772.695 664.971 766.007 655.559C752.031 635.889 741.358 620.591 725.457 597.436C719.285 588.446 708.294 572.548 701.034 562.109C693.775 551.668 685.05 539.093 681.648 534.162C678.245 529.234 668.051 514.521 658.994 501.471C649.938 488.421 637.967 471.082 632.393 462.939L622.259 448.134L597.645 430.35C584.107 420.568 568.995 409.621 564.066 406.021C524.246 376.955 390.684 281.209 334.658 241.569C318.416 230.076 300.616 217.481 295.106 213.579C284.868 206.33 250.62 182.466 226.02 165.44C193.382 142.852 160.158 120.515 136.491 105.252C122.5 96.229 109.871 88.0837 108.426 87.1504C106.981 86.2172 109.335 89.7246 113.657 94.9446ZM238.15 336.2C238.15 336.891 309.336 408.582 396.34 495.511L554.532 653.564L561.77 667.42C575.33 693.377 593.416 727.638 602.482 744.545C607.458 753.825 618.633 775.205 627.312 792.055L643.093 822.693L647.615 826.293C650.102 828.271 668.749 843.688 689.052 860.548C709.356 877.411 731.143 895.459 737.471 900.659C743.795 905.855 756.276 916.159 765.205 923.555C774.134 930.95 781.679 937 781.97 937C782.261 937 780.865 934.034 778.865 930.409C776.864 926.784 760.765 897.718 743.086 865.818C701.952 791.591 690.725 770.993 691.165 770.555C691.359 770.361 728.222 782.405 773.082 797.321L854.646 824.441L868.646 833.893C877.26 839.709 883.247 844.504 884.204 846.357C887.207 852.162 886.08 856.32 879.535 863.586L876.796 866.625L882.782 866.043C897.264 864.632 909.367 854.307 913.688 839.68L915 835.236L911.044 820.473C908.869 812.352 906.021 801.832 904.714 797.095L902.343 788.48L895.898 783.809C892.354 781.239 876.875 769.959 861.502 758.741C788.662 705.587 696.853 640.262 633.15 596.259C615.748 584.236 598.661 572.429 595.18 570.02C573.05 554.702 558.238 544.727 493.398 501.479C339.57 398.879 238.15 333.207 238.15 336.2ZM331.055 577.832C331.868 578.63 411.507 635.871 478.631 683.902C521.459 714.546 568.226 747.725 581.827 757.112L593.787 765.37L592.075 762.059C591.132 760.237 583.81 747.486 575.801 733.72C567.794 719.954 551.129 691.091 538.768 669.579L516.296 630.468L457.119 613.28C377.158 590.057 332.896 577.4 331.65 577.4C331.08 577.4 330.812 577.593 331.055 577.832ZM833.025 764.393C833.025 764.839 836.794 771.695 847.578 790.846L852.866 800.239L860.611 802.53C864.873 803.791 872.274 806.052 877.06 807.554C882.8 809.355 885.744 809.864 885.712 809.05C885.686 808.373 884.618 805.357 883.34 802.35L881.015 796.88L875.741 793.2C859.037 781.541 833.025 764 833.025 764.393Z" fill="#0A0A0A"/>
</svg>
